<svg xmlns="http://www.w3.org/2000/svg" viewBox="0 0 457.66 457.29"><defs><style>.cls-1{fill:#2655d2;}.cls-2{fill:#114ce8;}.cls-3{fill:#2153d8;}.cls-4{fill:#2956c4;}.cls-5{fill:#2f57a5;}.cls-6{fill:#0749f7;}.cls-7{fill:#d1884e;}.cls-8{fill:#0649f9;}.cls-9{fill:#0749f5;}.cls-10{fill:#0406f8;}.cls-11{fill:#f86709;}.cls-12{fill:#084af5;}.cls-13{fill:#084af4;}.cls-14{fill:#0b4bef;}</style></defs><title>Asset 1</title><g id="Layer_2" data-name="Layer 2"><g id="Layer_1-2" data-name="Layer 1"><path class="cls-1" d="M458.87,248.88c-.43.93-1.24,1.86-1.25,2.8-.12,15.34-5.13,29.68-9,44.24-1.29,4.78-1.89,9.89-4,14.28-6.58,13.63-13.33,27.23-20.8,40.39-6.29,11.07-13.19,21.86-22,31.24a73,73,0,0,1-6.24,5.36c0-1.44,2.25-3.21-.6-4.25,2.47-3.14,5-6.24,7.41-9.42,3.44-4.53,6.82-9.11,10.22-13.66.17-.46.34-.92.5-1.38.32-.16.79-.22.95-.48,3.62-5.75,7-11.65,10.83-17.27,11.06-16.27,15.95-35.09,22-53.39,2.06-6.27,3-13,3.79-19.59,1.51-12.35,3.2-24.75,3.57-37.16.3-9.74-.89-19.58-2.13-29.29a257.35,257.35,0,0,0-5-26.37c-1.28-5.51-3.68-10.74-5.33-16.17-5.87-19.38-15.1-37.13-26.2-53.94a148,148,0,0,0-12-16.48c-6.84-7.76-14-15.26-21.59-22.34a207.53,207.53,0,0,0-19-15.42c-7.76-5.72-15.49-11.67-23.91-16.29-9-4.94-18.8-8.52-28.31-12.55-6.66-2.82-13.43-5.41-20.15-8.1l-3.7-4.52c9.39,3,19,5.47,28.12,9.06a238.8,238.8,0,0,1,25.83,12.23c7,3.74,13.58,8.16,20.15,12.58,5.64,3.79,11.46,7.5,16.34,12.16,7.32,7,13.81,14.8,20.78,22.13,3.38,3.55,7.25,6.64,10.55,10.25a99.53,99.53,0,0,1,7.06,9.35c9.61,13.37,16,28.48,23.44,43,6.32,12.33,10,25.34,13.55,38.49,1.35,5,1.76,10.23,2.53,15.36,1,6.45,1.87,12.92,2.84,19.37a11.84,11.84,0,0,0,.84,2.23v6l-.76,0c-2.21-1.27-2.93-.11-2.95,1.9q-.06,7,0,14c0,2,.77,3.14,3,1.89l.75,0Zm-5.38,14.32,1.46.06.88-13.1-1.31-.06Q454,256.64,453.49,263.2Z" transform="translate(-1.21 -1.51)"/><path class="cls-2" d="M458.87,239.2l-.75,0q0-8.89,0-17.79l.76,0Z" transform="translate(-1.21 -1.51)"/><path class="cls-1" d="M1.4,221.32c.64-7.26.59-14.66,2-21.75,3.22-15.62,6-31.49,11.21-46.49,4.6-13.35,11.47-26.08,18.63-38.32A260.91,260.91,0,0,1,57,80.71C64.4,71.72,74,64.6,81.93,56c11.28-12.35,26.44-18.46,40.28-26.77C144.93,15.55,169.91,9,195.7,4.56a234.73,234.73,0,0,1,45.91-3c1,0,1.95.92,2.92,1.4l-25.71.26,0,1.35c8,0,16,0,24-.07.57,0,1.12-1,1.69-1.56,3.69.14,7.38.21,11.06.48a11.16,11.16,0,0,1,3,1.13l-7.84,1,.18.61,10.59,2.05c-6.19-.7-12.37-1.87-18.57-2-9-.18-18,.62-27,.57-11-.06-21.54,2.06-32.12,4.51-6.13,1.42-12.55,1.91-18.45,3.94-9,3.1-17.48,7.64-26.48,10.7-10.4,3.53-19.21,9.62-28.39,15.27A222.21,222.21,0,0,0,65.6,77.33c-2.47,2.6-5.07,5.12-7.27,7.94-3.43,4.41-6.66,9-9.8,13.61-4.34,6.39-8.77,12.72-12.67,19.37-3.35,5.7-6,11.8-8.95,17.75C24.64,140.62,22,145.12,20.3,150c-2.75,7.84-5.11,15.84-7.17,23.89-4.34,16.92-7.62,34-7.08,51.62C6.28,233,6,240.59,6,248.15a3.85,3.85,0,0,1-.57-1.31c-.29-7.86-.67-15.71-.73-23.57C4.65,220.23,4.07,219.33,1.4,221.32Z" transform="translate(-1.21 -1.51)"/><path class="cls-1" d="M158.66,447.22c-6.78-2.21-13.81-3.85-20.27-6.77-7.51-3.4-14.35-8.24-21.77-11.86a145.36,145.36,0,0,1-41.24-30.11C66,388.72,56.8,378.76,47.57,368.84a12.47,12.47,0,0,1-1.52-2.9l2.53-2.46c6.43,7.09,12.89,14.15,19.26,21.29,2.35,2.63,4.13,5.88,6.8,8.1q13.19,11,26.86,21.31c14.25,10.73,30.71,17.51,46.53,25.42a72,72,0,0,0,8.5,3l2.23,2.87Z" transform="translate(-1.21 -1.51)"/><path class="cls-1" d="M41.71,358.61a113.08,113.08,0,0,1-14.78-22.27c-8.91-17.45-15-35.87-19.84-54.79-.36-1.42-.53-2.9-.78-4.35L9,280.65l.83-.18v-4.12c.61,1.77,1.37,3.49,1.8,5.3.92,4,1.68,7.94,2.5,11.91q-1.78-3.87-3.55-7.74l-.84.39c1.05,3.72,2,7.45,3.17,11.15.29.94.7,3,2.13.59a6.6,6.6,0,0,1,.77,1.15c2.4,5.91,4.48,12,7.21,17.72,6.11,12.91,12.53,25.67,18.83,38.5Z" transform="translate(-1.21 -1.51)"/><path class="cls-1" d="M329.34,435.94A172,172,0,0,1,290.8,450.6c-9.21,2.2-18.53,4-27.79,5.92-1.08-.7-2.1-1.91-3.23-2-3.15-.29-6.34-.12-9.51-.13.39-.23.77-.64,1.18-.66,10.68-.64,21.2-2.11,31.41-5.47q22.41-7.39,44.85-14.71Z" transform="translate(-1.21 -1.51)"/><path class="cls-2" d="M9.86,276.35v4.12l-.83.18L6.31,277.2c-1.62-11.09-3.62-22.15-4.72-33.3-.73-7.46-.17-15.05-.19-22.58,2.67-2,3.25-1.09,3.27,2,.06,7.86.44,15.71.73,23.57A3.85,3.85,0,0,0,6,248.15Q7.9,262.25,9.86,276.35Z" transform="translate(-1.21 -1.51)"/><path class="cls-1" d="M369.53,412c-10.25,7.14-20,15.16-32,19.45l-.87-3.19,0,0,.81-.59q17.82-12,35.66-24l2.32,2.11Q372.51,409,369.53,412Z" transform="translate(-1.21 -1.51)"/><path class="cls-1" d="M209.36,457.44c-9.87-1.58-19.75-3.11-29.6-4.78-4.14-.7-8.24-1.62-12.32-2.61a26.5,26.5,0,0,1-4.34-1.86c0-.89.07-1.79.11-2.69l.85,0c1.62.74,3.17,1.86,4.87,2.17,9.19,1.63,18.4,3.2,27.65,4.51,7.22,1,14.5,1.62,21.75,2.4v2.82Z" transform="translate(-1.21 -1.51)"/><path class="cls-3" d="M261.52,8.22,250.93,6.17l-.18-.61,7.84-1c3.31.19,6.63.28,9.92.58,3.84.36,8-.19,11,3.12-1.29-.19-2.59-.33-3.86-.59-2.35-.5-3.68,0-2.93,2.76Z" transform="translate(-1.21 -1.51)"/><path class="cls-2" d="M218.34,457.36c0-.49,0-1,0-1.47h26.36v1.52h-4.14c0,.46.07.93.11,1.39l-20.7-.13Z" transform="translate(-1.21 -1.51)"/><path class="cls-4" d="M240.66,458.8c0-.46-.08-.93-.11-1.39h4.14v-1.52H218.33v-1.35h28.3c1.08.7,2.11,1.9,3.26,2,2.92.32,5.9.17,8.85.21Z" transform="translate(-1.21 -1.51)"/><path class="cls-2" d="M272.69,10.46c-.74-2.76.59-3.26,2.94-2.76,1.27.26,2.57.4,3.86.59l7.35.83,3.7,4.52Z" transform="translate(-1.21 -1.51)"/><path class="cls-2" d="M387.33,397.05l-4.37,3c-1.1-.91-3.76,2.49-3.78-1.37l5.88-6.1,5.51.09Z" transform="translate(-1.21 -1.51)"/><path class="cls-4" d="M336.69,428.3l.87,3.19-8.22,4.45-1.63-2.4Z" transform="translate(-1.21 -1.51)"/><path class="cls-4" d="M390.57,392.68l-5.51-.09,8.26-7.52,1.71,2.42-1,2.86Z" transform="translate(-1.21 -1.51)"/><path class="cls-2" d="M258.74,456.79c-3,0-5.93.11-8.85-.21-1.15-.13-2.18-1.33-3.26-2l3.64-.17c3.17,0,6.36-.16,9.51.13,1.13.1,2.15,1.31,3.23,2Z" transform="translate(-1.21 -1.51)"/><path class="cls-2" d="M41.71,358.61c.06-1.1.11-2.19.17-3.29l6.7,8.16-2.53,2.46Z" transform="translate(-1.21 -1.51)"/><path class="cls-4" d="M379.18,398.69c0,3.86,2.68.46,3.78,1.37l-6.75,6.22-.75-.41-2.32-2.11Z" transform="translate(-1.21 -1.51)"/><path class="cls-5" d="M218.34,457.36l1.62,1.31-10.6-1.23Z" transform="translate(-1.21 -1.51)"/><path class="cls-2" d="M395,387.49l-1.71-2.42,1.63-2.13c2.85,1,.56,2.81.6,4.25A.5.5,0,0,1,395,387.49Z" transform="translate(-1.21 -1.51)"/><path class="cls-2" d="M163.21,445.5c0,.9-.07,1.8-.11,2.69l-4.44-1c0-.57.07-1.15.1-1.72Z" transform="translate(-1.21 -1.51)"/><path class="cls-6" d="M458.11,221.38q0,8.9,0,17.79c-2.19,1.25-2.94.15-3-1.89q-.06-7,0-14C455.18,221.27,455.9,220.11,458.11,221.38Z" transform="translate(-1.21 -1.51)"/><path class="cls-2" d="M453.49,263.2q.51-6.56,1-13.1l1.31.06-.88,13.1Z" transform="translate(-1.21 -1.51)"/><path class="cls-7" d="M412.58,359.86a25.09,25.09,0,0,1-3.19-2.26,12.46,12.46,0,0,1-1.66-2.59,15.33,15.33,0,0,1,3.06,1.15,14.38,14.38,0,0,1,2.29,2.32C412.92,358.94,412.75,359.4,412.58,359.86Z" transform="translate(-1.21 -1.51)"/><path class="cls-8" d="M244.52,3c-.57.54-1.12,1.55-1.69,1.56-8,.1-16,.07-24,.07l0-1.35L244.53,3Z" transform="translate(-1.21 -1.51)"/><path class="cls-4" d="M156.53,442.63c2.83.08,5.88-.42,7.53,2.83l-.85,0h-4.45Z" transform="translate(-1.21 -1.51)"/><path class="cls-2" d="M14.16,293.56c.3,1.46.61,2.93.91,4.39-1.43,2.42-1.84.35-2.13-.59-1.14-3.7-2.12-7.43-3.17-11.15l.84-.39Q12.38,289.69,14.16,293.56Z" transform="translate(-1.21 -1.51)"/><path class="cls-4" d="M336.67,428.33l.81-.59Z" transform="translate(-1.21 -1.51)"/><path class="cls-8" d="M216.92,47c6.71-5.38,14.09-7,21.85-2.85,3.08,1.68,5.41,4.73,8.1,7.12,9.92,8.82,15,20.51,19.24,32.65.36,2.43.41,5,1.15,7.26,1.78,5.5,4.31,10.78,5.77,16.35,2.22,8.45,3.87,17.06,5.6,25.63,1,5,.51,5.47-4.72,5.47q-43.34,0-86.67,0a15.24,15.24,0,0,1-3.32-.22c-.58-.14-1.47-.84-1.47-1.29,0-3.38-.37-6.86.31-10.12,1.66-8,3.67-15.84,5.82-23.68,1.48-5.43,3.42-10.73,5.15-16.09,1.27-2.93,2.49-5.89,3.83-8.79,3.7-8,6.61-16.41,13.56-22.61C213.66,53.61,215,50,216.92,47Z" transform="translate(-1.21 -1.51)"/><path class="cls-6" d="M250.37,254.84c9.32,8.5,18.62,17,28,25.49a17.89,17.89,0,0,0,4.27,2.9c2.46,1.15,3,3,2.68,5.44-1,8.71-1.53,17.5-3.09,26.1-2,10.8-4.73,21.45-7.28,32.13a3,3,0,0,1-2.28,1.69c-28,.08-56,0-84,.11-2.86,0-4.34-.41-4.93-3.7-2.39-13.19-5.13-26.32-7.76-39.47-.27-1.37-.49-2.23,1.63-2.36a87.86,87.86,0,0,0,9.85-1.61c2.66-.21,5.4-.12,8-.74,2-.49,3.89-1.85,5.82-2.82l7.16-1.21c2.8-.48,5.62-.92,8.4-1.53.39-.08.57-1,.91-1.51a12.68,12.68,0,0,1,1.54-2c2.43-2.39,4.91-4.72,7.37-7.08l.12-1.08.22-.27c4.89,0,10.69-7,10.8-12.92l.93-2.92a8.69,8.69,0,0,0,1.27-2.5c.37-2.93.55-5.88.78-8.83.39-4.87,1.32-5.43,5.56-3.38,1.1.53,2.28.89,3.42,1.32l0,0Zm19.26,90.36c-17-2.12-78-1.3-79.84,0Z" transform="translate(-1.21 -1.51)"/><path class="cls-8" d="M286.23,149.05c-.13-.46-.25-.91-.37-1.37,1.6-.78,3.2-2.21,4.81-2.23q23.06-.25,46.13,0c3.74,0,6.94,1.22,7.53,5.82.21,1.6,1.27,3.09,1.94,4.63a1.51,1.51,0,0,1,.15.59l.6,2.37a1.57,1.57,0,0,1,.15.61c.16,2.3-.84,2-2.34,1.14a7,7,0,0,0-2.2-.45,10.91,10.91,0,0,0-.08,2.67c.86,4,3.44,3,6,1.93,1.23,4.63,2.67,9.21,3.62,13.9,1.27,6.27,2.47,12.58,3.12,18.94.82,8,1.09,16.1,1.55,24.15.12,2.09.09,4.2.12,6.29l-.09,17.21,0,0-64.1.11a17.81,17.81,0,0,1-.7-3.41c-.06-8.18.16-16.38-.08-24.56q-.4-14.37-1.45-28.73c-.47-6.68-1.41-13.33-2.18-20-.26-2.21.39-3.55,2.57-4.65,7.25-3.63,14.35-7.55,21.5-11.39,1-.55,1.95-1.27,3.8-2.48l-7.86-.45c-3.25,0-6.49-.12-9.74-.1C294.5,149.55,290.28,151.5,286.23,149.05Z" transform="translate(-1.21 -1.51)"/><path class="cls-6" d="M389.61,245.85c-8.55,0-17.11-.15-25.66.08-2.92.07-3.46-.87-3.39-3.54.18-7.06.07-14.13.06-21.2,0-13.48-2.21-26.7-4.23-40-1.75-11.57-5.29-22.57-8.63-33.66-.7-2.35.41-2.4,1.62-2.77a10.39,10.39,0,0,1,3-.11c13.51,0,27,.23,40.54-.16,3.71-.11,6.69-.1,8.37,3.5,1.27,2.72,2.08,5.65,3.2,8.44,2.19,5.49,4.88,10.83,6.59,16.46,2,6.44,3,13.16,4.61,19.73,3.15,13,2.85,26.27,3,39.51a100.67,100.67,0,0,0,.73,10.26c.3,2.7-.49,3.61-3.37,3.54-8.8-.2-17.6-.07-26.41-.07Z" transform="translate(-1.21 -1.51)"/><path class="cls-8" d="M67.94,144.32l26.35.07c4.22,0,8.44-.07,12.66,0,4.42.1,5,1.16,4,5.37-3,12-6.46,24-8.72,36.21-1.6,8.58-1.76,17.46-2.18,26.23-.51,10.65-.62,21.31-.91,32a40.87,40.87,0,0,1-6.15.95q-22.95.14-45.9,0c-2,0-4-1-5.94-1.5.25-9.25.37-18.51.84-27.75.13-2.39,1.66-4.66,2-7.07.94-6,1.05-12.29,2.47-18.21,3.33-13.91,6.51-27.9,13.19-40.75,1.28-2.47,2.88-3.79,5.73-3.84C66.23,146,67.08,144.92,67.94,144.32Z" transform="translate(-1.21 -1.51)"/><path class="cls-6" d="M103.59,205c2-15.26,3.93-30.52,8.5-45.3,1.19-3.88,1.66-8,2.84-11.85.44-1.44,1.83-3.38,3.06-3.61a11.12,11.12,0,0,1,6.54.85c2,1,3.48,3.08,5.18,4.69.92,1.55,1.61,3.34,2.82,4.62,2.29,2.4,5.12,4.32,7.31,6.8,5.22,5.91,10.12,12.12,15.33,18,2.47,2.8,5.38,5.22,8.09,7.8l0,0,1.58,2.34.53.79c.3.47.59.94.88,1.41l0-.05c.46,4.88,1.24,9.76,1.31,14.66.11,7.41-.36,14.84-.4,22.26,0,3.7.61,7.41.47,11.1-.1,2.84-.67,5.68-4.77,5.71-18,.1-36,.38-53.94.53-5.14,0-6-.88-5.91-6.16C103.13,228.09,103.37,216.57,103.59,205Z" transform="translate(-1.21 -1.51)"/><path class="cls-6" d="M100,257.83q2.27,14.4,4.52,28.79c-.75,11,3.37,20.91,6.71,31a14.68,14.68,0,0,1,.2,5.81c-.14,1.59-.84,3,1.88,2.65.74-.09,2,1.22,2.46,2.17,2.3,5,4.4,10.1,6.56,15.17a20.75,20.75,0,0,1-3.84.72c-10,.06-20,0-30,.05-1.23,0-2.45.15-3.68.24l.07,1.21h39.73c1.38,1.94,1.35,3.17-1.49,3.16-13-.05-26,0-39-.24a6.92,6.92,0,0,1-4.78-2.78c-5.9-8.84-12-17.63-17.15-26.89a155,155,0,0,1-16.53-45.18c-1.35-6.59-2.91-13.15-4.37-19.72l.72-2.86c17.34,0,34.69-.06,52,0a3.85,3.85,0,0,1,2.57,1.42C97.81,254.22,98.83,256.07,100,257.83Zm.52,26.52-1.51.07c.28,5.05.51,10.1.88,15.14.05.69.76,1.34,1.16,2,.38-.78,1.15-1.59,1.08-2.33C101.65,294.27,101,289.31,100.48,284.35ZM98.68,282l1.19-.15-.94-6.49-1.19.15C98.05,277.66,98.36,279.83,98.68,282Z" transform="translate(-1.21 -1.51)"/><path class="cls-8" d="M168.35,258.58c1,9.24,1.87,18.48,2.94,27.71.27,2.36-.2,3.94-2.39,5.18-5.14,2.91-10.15,6-15.22,9.06-.62-.33-1.25-.95-1.86-.94-5.42.14-9.39,3.38-13.27,6.63-.39.32.25,2.81.51,2.83,4.4.31,8.92,5.39,13.22-.18.18-.24.67-.31,1-.35,4.51-.53,9-1,13.52-1.57,3-.38,4.66.56,5,3.77a120.13,120.13,0,0,0,1.89,13.12c1.15,5.11,2.83,10.09,4.27,15.14q.75,3.36,1.48,6.73c-2.3,2.61-5,1.3-7.58.74a5.91,5.91,0,0,1,2.25-.77c.7-.15,1.39-.36,2.82-.74-5.12-1.21-6.72-1-9.57.85-.4.26-1.23,0-1.8-.16-1.28-.41-2.51-1.34-3.77-1.36q-14.15-.16-28.28,0c-2.35,0-3.48-.72-4.3-3a47,47,0,0,0-4.83-10.35c-3.35-5-3.7-10.87-5.92-16.14a55.28,55.28,0,0,0-3.63-6.31c-.3-6.69.28-13.56-4.45-19.26a5.93,5.93,0,0,1-.82-2.79c-1-6.31-2.11-12.62-2.92-18.95-.54-4.19-3.06-8.88,2.22-12.08a1.48,1.48,0,0,0,.53-1.32c-1.12-3.38,1.18-2.92,3.16-2.94q26.37-.34,52.73-.72c2.12,0,2.68.75,1.83,2.7S166.07,257.16,168.35,258.58Z" transform="translate(-1.21 -1.51)"/><path class="cls-9" d="M366.44,340.51c-6.79-5.73-13.62-11.4-20.3-17.26a4.1,4.1,0,0,1-.74-3.52c2.75-9.38,5.79-18.68,8.53-28.06a71.75,71.75,0,0,0,2-10.3c1.14-8.29,2.13-16.59,3.17-24.89.12-1,.19-2,.24-3,.14-3.19,1.54-4,4.89-4,15.81,0,31.63-.4,47.44-.62,5.72-.08,7.91,2.71,6.72,8.28-1.68,7.92-3,15.94-5.13,23.74-1.67,6.13-4.25,12-6.55,18-2.16,5.61-4.35,11.23-6.8,16.73a47.68,47.68,0,0,1-4.29,6.75q-7,10.54-14.08,21.06l-9.83.77,0,0-1.53-.78,0,0C370.51,340.57,368.63,340.34,366.44,340.51Z" transform="translate(-1.21 -1.51)"/><path class="cls-10" d="M280.13,170.65c-2.75,2.55-6.14,4.69-8.14,7.74-6.25,9.53-9.45,20.07-8.21,31.63a59.23,59.23,0,0,0,1.4,8.39c1,3.93,2.42,7.74,3.46,11.65,2.4,9.08,8.29,16.28,12.87,24.19,6.74,11.64,15.56,21.71,24.34,31.79,6.94,8,14.13,15.72,21.22,23.54,1.91,2.1,3.9,4.13,5.85,6.19l-1.49.85c-4.36-3-8.74-6-13.06-9.05-8.7-6.18-17.55-12.16-26-18.7-6.49-5-12.48-10.74-18.58-16.27-8.55-7.73-17.21-15.36-25.41-23.45-4.27-4.22-7.47-9.5-11.49-14-6.13-6.84-10-15-13.4-23.27-6.08-14.62-2-27.68,10.54-37.79,10.38-8.35,22.57-11.77,35.19-14.41,9.2-1.93,18.37-4,27.57-6,.95-.2,2.06.33,3.09.52a11.28,11.28,0,0,1-2.13,2.45c-4.1,2.64-8.36,5.05-12.42,7.75-1,.68-1.53,2.15-2.28,3.25Z" transform="translate(-1.21 -1.51)"/><path class="cls-11" d="M170.77,172.08l.78.63.83.73h0c.78,4.71,6.25,9.26,11.75,9.79l0,0,1,.7q4,3,8,6.08L193,190l1.87.88a.29.29,0,0,0,.3.29l.83,1.16-.07,0a18.63,18.63,0,0,0,1.7,2.53c6.65,7.13,13.8,13.86,19.88,21.45,5.56,6.94,10,14.82,14.9,22.26.68,1,1.54,1.95,2.31,2.92l0-.05c.89,4.43,2,8.83,2.61,13.3.81,6,.45,12-3.42,17-2.07,2.66-5.33,4.35-7.64,6.86-11.88,12.9-27.7,17.42-44,20.87-6.89,1.46-13.86,2.56-20.83,3.66-1,.16-2.23-.54-3.36-.84.77-.67,1.5-1.38,2.31-2,7.75-5.94,16.37-11,23.09-18,11.55-11.93,12.91-27.14,10-42.82-2.63-14.4-9.23-27.14-17.4-39.1-.73-1.07-2.33-1.55-3.52-2.3h0c-1.42-7.68-6.9-12.7-11.88-18.05a3.57,3.57,0,0,0-.53.34l0,0-1.51-2.28,0,0-.8-1.53,0,.05-.76-.81,0,0-.78-.79.05,0-.8-.8.05.06-1.56-2.27.05.05-1.52-.82.06.06-1.93-1.56q0-.31-.3-.3c-.36-3.16-1.06-3.93-3.78-4.16l0,0c-.34-1-.44-2.21-1.08-3-3.11-3.7-6.37-7.27-9.57-10.9L135,148.44l2.29-1.78,8.82,6.69,1.46,1h0l4.71,5.32c1.82,2,3.64,4.11,5.47,6.15.59.67,1.27,1.88,1.84,1.84,3.2-.22,5.33,1.37,7.47,3.45C167.89,171.83,169.52,171.77,170.77,172.08Z" transform="translate(-1.21 -1.51)"/><path class="cls-9" d="M273.42,354c-2.14,6-4.25,12-6.45,17.91-3.08,8.34-5.45,17.06-9.59,24.83-3.08,5.79-8.45,10.39-12.89,15.44a14.09,14.09,0,0,1-3,2c-8.24,2.12-16.47,2.44-24.71,0l.05,0-.8-.8.05,0-.8-.8.06.06-.8-.8,0,0-.79-.8.05.06-.8-.81.05,0a13,13,0,0,0-1.43-3.26c-12.09-14.71-17.89-32.36-23.41-50.12-1.34-4.3-.88-4.67,3.59-4.67,24.95,0,49.9,0,74.85.07C269,352.56,271.19,353.52,273.42,354Z" transform="translate(-1.21 -1.51)"/><path class="cls-12" d="M285.09,140.21c-1.9-8.73-3.26-17.63-5.8-26.16-6.38-21.43-11.5-43.46-26-61.49-2.18-2.71-4.48-5.33-6.73-8l.82-1.36c6.23,2.28,12.64,4.19,18.65,7,5.14,2.37,9.7,6,14.75,8.59,11.95,6.18,20.55,16,29.18,25.89,11.69,13.43,18.89,29.55,27.6,44.76,1.68,2.94,2.25,6.5,3.34,9.78-3.55.31-7.09.86-10.63.89C315.22,140.2,300.16,140.17,285.09,140.21Z" transform="translate(-1.21 -1.51)"/><path class="cls-12" d="M131.56,139.42c-3.08-2-6.24-3.87-9.19-6a3.16,3.16,0,0,1-.67-2.94c7.73-17.67,17-34.43,30.14-48.75,8.23-9,16.65-17.72,27.11-24.1,4.7-2.87,9.87-5,14.83-7.46a13.58,13.58,0,0,0,3.37,0c1.77-.44,3.43-1.34,5.21-1.77a28.63,28.63,0,0,1,4.37-.43c-.52,1.29-1,2.58-1.54,3.88s-1.11,2.87-1.66,4.31l0,0c-1.21.69-2.58,2.17-3.59,1.95-3.56-.79-3.08,1.25-3.36,3.53s-1.55,4.34-2.18,6.55C193.62,71,193,74,192.31,77c-4,12.37-8.4,24.64-12,37.14-2.11,7.35-3,15.06-4.39,22.6a20.88,20.88,0,0,1-.8,2.47c-2.28.32-4.54.81-6.82.94-5.94.34-11.89.52-17.84.77h-5.08Z" transform="translate(-1.21 -1.51)"/><path class="cls-13" d="M347.15,140.27a26.12,26.12,0,0,1-3-3.7c-8.61-15.77-16.91-31.72-25.82-47.32-3-5.31-7.54-9.78-11.38-14.63l-1.55-1.46.05,0-.88-.72.05.06L303,71.09l.05,0-.84-.74,0,0-.82-.73.26-.24-.24.25-.79-.68,0,0-.72-.69h0l-1.22-1.07,0,0-.89-.7.07.06-.86-.75.06.06-.86-.71.18-.14-.15.17-.82-.66.1-.35-.12.34-1.23-1.06,0,0-.93-.65.07.07L292,62l0,0-.89-.67,0,0c-.41-.84-.6-2-1.26-2.48-3.29-2.57-6.78-4.9-10-7.53-1-.78-1.31-2.28-1.94-3.45l1.36.05,3.21,1.3c4.1,1.09,8.17,2.35,12.31,3.24,12.48,2.68,22.3,10.82,33.52,16,8.66,4,15.39,10.42,22.57,16.3,5.14,4.21,10.33,8.4,15.06,13.06a130.61,130.61,0,0,1,10.39,12.32c4.22,5.33,8.6,10.57,12.31,16.25,2.54,3.87,4.06,8.41,6,12.66a61.8,61.8,0,0,1-7.62,1C373.79,140.24,360.47,140.23,347.15,140.27Z" transform="translate(-1.21 -1.51)"/><path class="cls-9" d="M326.66,248.92h24.19c5.56.06,6.59,1.09,5.93,6.56-.58,4.81-1.21,9.64-2.18,14.38-1.64,8-3.42,16-5.4,24-1.85,7.38-4,14.68-6.11,22a17.33,17.33,0,0,1-1.39,2.84,16.26,16.26,0,0,1-2.65-1.85c-2.58-2.64-4.95-5.49-7.58-8.07-5.28-5.18-10.9-10-16-15.41-6.9-7.27-13.58-14.78-20.09-22.4-4.83-5.65-4.78-12.59-3.89-19.49.09-.71,1.92-1.72,2.95-1.73,10.74-.13,21.48-.08,32.21-.08Z" transform="translate(-1.21 -1.51)"/><path class="cls-13" d="M289.29,289.5c5.47,4.38,10.21,8.5,15.26,12.19,10.86,7.94,21.91,15.62,32.79,23.54a3.52,3.52,0,0,1,.8,3.22q-3.48,8.32-7.43,16.46c-1.27,2.61-3.53,3.79-6.6,3.77q-20.85-.14-41.7,0c-2.44,0-3.44-.64-2.93-3.08,1.47-7.1,3.12-14.18,4.37-21.32,1.45-8.36,2.52-16.79,3.8-25.18C288.15,295.83,288.77,292.56,289.29,289.5Z" transform="translate(-1.21 -1.51)"/><path class="cls-12" d="M132,354.14c.09-.31.17-.62.25-.94,4.31-.23,8.62-.63,12.93-.67,11-.12,22.08-.08,33.12-.11,3.24-.58,3.08,1.56,3.78,3.88,2.15,7.14,4.67,14.19,7.48,21.11,4.31,10.66,8.9,21.26,16.22,30.27,2.6,3.19,6.1,5.66,9.19,8.46l-.92,1.4c-2.59-.64-5.23-1.14-7.77-1.94-16.86-5.33-31-15.1-44.14-26.67-8.68-7.65-14.56-17.55-22-26.19-2.55-3-5.45-5.65-8.18-8.47Z" transform="translate(-1.21 -1.51)"/><path class="cls-6" d="M158.77,54.64l2.86-.9.9-.58a1.75,1.75,0,0,1,.59-.14l1.66-.6a1.7,1.7,0,0,1,.58-.14c2.85-.49,5.73-.87,8.56-1.49s5.61-1.57,8.46-2.15c.46-.09,1.16,1,1.75,1.58l-7.39,4.53c-3.33-1.79-5.09.63-7,2.62-1.27,1.32-2.44,2.74-3.8,4-7.06,6.31-14.6,12.15-21.08,19-3.49,3.69-5.19,9.08-7.69,13.7-6,10.67-12,21.3-17.92,32-1.66,3-3.29,3-5.78,1-3-2.38-6.14-4.49-9.23-6.71l-3.1-2.12-.09,0c-3.09-2.59-6-5.42-9.31-7.7-3.88-2.67-3.9-2.9-.77-6.58,1.82-2.13,2.92-4.88,4.35-7.35l2.29-2.63c2-.89,4.38-1.43,6.11-2.75C109.2,87,114.1,82,119.87,78.34c10-6.38,20.59-12,30.85-18C153.54,58.67,156.1,56.55,158.77,54.64Z" transform="translate(-1.21 -1.51)"/><path class="cls-14" d="M132,354.14l0,.13c0,5.76,3.14,10,6.58,14.21,5.42,6.58,10.3,13.7,16.32,19.68,10.46,10.39,22.1,19.38,35.79,25.34a12.25,12.25,0,0,1,4.27,2.89c-20.57-3.8-40.27-9.66-58.09-21.34s-36.23-22.86-49.52-40.25c-.21-2.81,1.81-2.36,3.49-2.36l38,.08Z" transform="translate(-1.21 -1.51)"/><path class="cls-8" d="M266,388.05c.23-.48.46-1,.68-1.45,2.88,1.57,3.84,1.15,4-2.52.12-3.3,1.64-6.58,2.71-9.81.84-2.56,2.76-5.06,2.71-7.56-.09-4.68,2.39-7.85,4.77-11.27.62-.9,1.09-1.9,1.64-2.86l5.79,0a10.94,10.94,0,0,0,3.13,1.19c3.47.15,7-.16,10.42.12,3.81.29,8-1.51,11.36,1.77a1.41,1.41,0,0,0,1.32-.18c2.17-1.87,3.35-.15,4.59,1.23,1.53,1.7.95,3.19-.16,5-1.71,2.75-3,5.74-4.48,8.63-7,9.86-15.78,17.92-25.28,25.28-2.88-1.59-5.17-.5-6.6,2-3.49,6.06-9.41,8.37-15.47,10.57C265,409,263,409.8,261,410.63c-3.24,1.33-6.46,2.7-10.45,4.37,3.57-5,6.72-8.78,9.09-13C262.14,397.58,263.89,392.72,266,388.05Z" transform="translate(-1.21 -1.51)"/><path class="cls-2" d="M195.19,191.15a.29.29,0,0,1-.3-.29L193,190l.07.05a15.39,15.39,0,0,0-2.3-3.19c-3.66-3-7.45-5.86-11.18-8.77l0,.06-.79-.8.06,0c0-.12.17-.31.14-.33-4.33-3.49-5.21-7.82-4-13.19,1-4.75,1.06-9.72,1.78-14.56.21-1.4,1.26-2.67,1.93-4,7.43,0,14.87.13,22.3,0,3.13-.05,3.56,1.17,2.78,3.85-2.13,7.29-3,8-10.58,8.15a5.85,5.85,0,0,0-2.88.36c-1.64,1-4,2.78-1,4.37,6,3.26,7.91,7.53,5.32,14-.38,1,.65,2.93,1.59,3.84a3.42,3.42,0,0,0,3.35,0,31.19,31.19,0,0,0,3.82-4.74c2.09-2,3.83-1.54,6.07.18,1.89,1.45,4.48,2,6.76,2.94l2-.07c4.13-.07,7.4-1.84,10.43-4.61,1.69-1.55,4-2.39,6.08-3.55-1.42,1.36-2.75,2.82-4.26,4.06-10.51,8.6-13.21,19.66-10.44,32.53.71,3.28,1.15,6.61,1.52,8.81-6.42-5.87-13.22-12.11-20.06-18.32-1.8-1.64-3.7-3.17-5.56-4.75l.07,0Zm-15.42-28.36c1.23-.71,2.17-.93,2.43-1.47,1.69-3.42,3.25-6.89,4.75-10.39a1.59,1.59,0,0,0-.62-1.44,1.83,1.83,0,0,0-1.63.53c-2,3.4-3.9,6.83-5.66,10.33C178.78,160.85,179.45,161.81,179.77,162.79Z" transform="translate(-1.21 -1.51)"/><path class="cls-8" d="M299.47,394l1.65-2.14c2.95.22,5.26-3.53,8.56-1.42a11,11,0,0,1,.8-1.14c1.75-1.9,1.21-4.58,2-6.5,1.56-3.86,6.26-5.83,7.74-10.13,4.56.45,4.52-1.87,3.17-5.14a7.56,7.56,0,0,1-.07-2.57l1.43-1.44c1.45-.86,3.6-1.38,4.22-2.65,3.24-6.54,8-8.59,15.17-7.14,4.91,1,10.07.79,15.12.86a64,64,0,0,0,7.77-.82l2-.23a12.48,12.48,0,0,1-.4,2c-.65,1.69-1.38,3.34-2.09,5h0l-.75.76,0,0-.77.79-1.4,1.45-.82,1.52,0,0-.78.79,0,0-.79.78,0,0c-3.21.89-7.5.17-7.82,5.36,0,.42-.83.89-1.36,1.17-12.46,6.66-21.8,18.31-35.89,22.37-.78.23-1.37,1-2.12,1.44-2.87,1.59-5.77,3.13-8.66,4.69-2.42.53-4.85,1-7.26,1.6a17.16,17.16,0,0,0-2.13.8c.2-.75.36-1.53.62-2.26C297.63,399.16,298.55,396.59,299.47,394Z" transform="translate(-1.21 -1.51)"/><path class="cls-12" d="M280.13,170.65l3-3c.75.5,1.51,1,2.25,1.52.06,0,0,.24,0,.36.75,13.84,1.6,27.67,2.2,41.52q.63,14.61.63,29.24c0,1.84-.91,4.88-2.12,5.31-4.33,1.51-6.88.26-8.46-2.92-2.78-5.61-6.52-10.95-8.18-16.87-2.95-10.58-5.22-21.61-2.39-32.56A36.62,36.62,0,0,1,277,176.73C278.51,175.19,279.1,172.7,280.13,170.65Z" transform="translate(-1.21 -1.51)"/><path class="cls-9" d="M234.75,170c-2.05,1.16-4.39,2-6.08,3.55-3,2.77-6.3,4.54-10.43,4.61a58.45,58.45,0,0,0-1.42-5.73c-1-2.94-.76-5.1,2.3-6.78s5.86-3.89,8.79-5.88c-3.13-.78-6.67-1.83-10.29-2.53-6.86-1.34-7.83-2.43-7.52-8.69.11-2.14.79-3.16,3.07-3.16q32.16.06,64.31,0c2.47,0,3.25,1.23,3.44,3.37s-1.06,2.91-3,3.41c-6.68,1.73-13.35,3.51-19.93,5.58-1.73.55-3.11,2.23-4.64,3.38l0,0-1.56.6Z" transform="translate(-1.21 -1.51)"/><path class="cls-9" d="M92.46,114.91l7.55,8,.8.74,0-.06a35.47,35.47,0,0,0,3.65,4.8c2.13,2,4.66,3.62,6.83,5.61,2.72,2.5,2.42,3.42-1,4.59a10.37,10.37,0,0,0-2.22,1.46l-41.54,0c1.2-3.06,2-6.38,3.69-9.13,3.55-5.78,7.69-11.18,11.35-16.89,1.71-2.66,3.53-2.59,5.94-1.34C89.09,113.53,90.79,114.18,92.46,114.91Z" transform="translate(-1.21 -1.51)"/><path class="cls-2" d="M187.67,245.87c-4.31.06-8.62.15-12.93.16-2.05,0-3.42-.56-3.36-3.15.17-7.14.11-14.29.14-21.43.23-3.77.28-7.56.76-11.29a70.9,70.9,0,0,1,1.91-8c8.16,11.34,14.23,23.61,16.79,37.45C190.87,242.2,190.75,244.82,187.67,245.87Z" transform="translate(-1.21 -1.51)"/><path class="cls-2" d="M171.91,257c0-7.63,0-7.63,7.57-7.64,3.46,0,6.93.05,10.39-.09,2-.08,2.5.62,2.52,2.54.05,8.65-1.84,16.59-7.56,23.37-2.47,2.93-4.64,6.11-7.07,9.07a11,11,0,0,1-2.67,1.75,10.91,10.91,0,0,1-1.32-3.12C173.08,274.28,172.51,265.65,171.91,257Z" transform="translate(-1.21 -1.51)"/><path class="cls-4" d="M253.35,161.07c1.53-1.15,2.91-2.83,4.64-3.38,6.58-2.07,13.25-3.85,19.93-5.58,1.94-.5,3.19-1.17,3-3.41s-1-3.38-3.44-3.37q-32.16.09-64.31,0c-2.28,0-3,1-3.07,3.16-.31,6.26.66,7.35,7.52,8.69,3.62.7,7.16,1.75,10.29,2.53-2.93,2-5.71,4.19-8.79,5.88s-3.33,3.84-2.3,6.78a58.45,58.45,0,0,1,1.42,5.73l-2,.07a10.88,10.88,0,0,0-.43-2.16c-2.16-5.18-2.91-10,2.91-13.46.52-.31.69-1.2,1-1.82-1.08-.47-2.22-1.44-3.23-1.31-5.12.64-7.51-2.06-8.84-6.49a13.52,13.52,0,0,0-1.79-2.91,17.84,17.84,0,0,0-1.73,3.09c-1.08,3.35-2.35,6.25-6.66,6.19a41,41,0,0,0-5.7.69c1.28,1.55,2.34,3.38,3.89,4.6,2.67,2.12,3.92,4.33,2.1,7.59a6.16,6.16,0,0,0-.65,2.12,27.31,27.31,0,0,0-.13,2.87,17.42,17.42,0,0,0,2.7-.53c1.27-.44,2.48-1.05,3.72-1.59a31.19,31.19,0,0,1-3.82,4.74,3.42,3.42,0,0,1-3.35,0c-.94-.91-2-2.87-1.59-3.84,2.59-6.44.71-10.71-5.32-14-2.93-1.59-.61-3.33,1-4.37a5.85,5.85,0,0,1,2.88-.36c7.58-.14,8.45-.86,10.58-8.15.78-2.68.35-3.9-2.78-3.85-7.43.13-14.87,0-22.3,0,1.83-.55,3.66-1.57,5.49-1.57,29.1,0,58.21,0,87.31.07,2.47,0,4.95.07,7.41-.05s3.15.93,3.51,3.17c.9,5.63,1,5.79-4.67,7.39C269.66,156.63,261.5,158.83,253.35,161.07Z" transform="translate(-1.21 -1.51)"/><path class="cls-2" d="M171.08,168.6a8.61,8.61,0,0,1-1.29-.62q-14.7-10.69-29.38-21.43a9.5,9.5,0,0,1-1.49-1.86,8.39,8.39,0,0,1,2.36-.75c9.78,0,19.56,0,29.34.11,2.33,0,4.08,1,3.63,3.91C173.18,154.77,172.15,161.57,171.08,168.6Z" transform="translate(-1.21 -1.51)"/><path class="cls-14" d="M332.2,348.93c4-7.17,7.4-13.32,10.91-19.62l28.47,19.62Z" transform="translate(-1.21 -1.51)"/><path class="cls-3" d="M193.73,87.27c-1.73,5.36-3.67,10.66-5.15,16.09-2.15,7.84-4.16,15.73-5.82,23.68-.68,3.26-.34,6.74-.31,10.12,0,.45.89,1.15,1.47,1.29a15.24,15.24,0,0,0,3.32.22q43.33,0,86.67,0c5.23,0,5.73-.46,4.72-5.47-1.73-8.57-3.38-17.18-5.6-25.63-1.46-5.57-4-10.85-5.77-16.35-.74-2.3-.79-4.83-1.15-7.26,5.57,12.49,9,25.63,11.79,39,1,4.55,1.75,9.15,2.33,13.76.14,1.1-.89,2.35-1.39,3.53q-48.81,0-97.63,0a10.94,10.94,0,0,0-2.44.58c-.39-.52-1.22-1.15-1.12-1.55q6.27-24.06,12.72-48.08c.34-1.3.9-2.55,1.37-3.83Z" transform="translate(-1.21 -1.51)"/><path class="cls-2" d="M114.86,308.43a55.28,55.28,0,0,1,3.63,6.31c2.22,5.27,2.57,11.17,5.92,16.14a47,47,0,0,1,4.83,10.35c.82,2.3,1.95,3,4.3,3q14.15-.15,28.28,0c1.26,0,2.49,1,3.77,1.36.57.19,1.4.42,1.8.16,2.85-1.82,4.45-2.06,9.57-.85-1.43.38-2.12.59-2.82.74a5.91,5.91,0,0,0-2.25.77c2.62.56,5.28,1.87,7.58-.74.45,2.07.07,3.06-2.5,3-12.65-.14-25.3,0-37.95-.11a46.94,46.94,0,0,1-7.28-.76,3.22,3.22,0,0,1-1.91-1.38c-6.88-11.12-11.11-23.37-15.05-35.73C114.81,310,114.84,309.21,114.86,308.43Z" transform="translate(-1.21 -1.51)"/><path class="cls-3" d="M114.86,308.43c0,.78,0,1.55-.08,2.33-4.28-11.4-6.41-23.31-8.18-35.3-1.14-7.71-2.18-15.43-3.38-23.13-.34-2.17-.18-3,2.46-3q29.4.06,58.82-.31c2.84,0,4.21.5,3.9,3.6a58.8,58.8,0,0,0-.05,5.94c-2.28-1.42-2.12-3.42-1.21-5.51s.29-2.73-1.83-2.7q-26.37.39-52.73.72c-2,0-4.28-.44-3.16,2.94a1.48,1.48,0,0,1-.53,1.32c-5.28,3.2-2.76,7.89-2.22,12.08.81,6.33,1.9,12.64,2.92,18.95a5.93,5.93,0,0,0,.82,2.79C115.14,294.87,114.56,301.74,114.86,308.43Z" transform="translate(-1.21 -1.51)"/><path class="cls-2" d="M299.47,394c-.92,2.57-1.84,5.14-2.73,7.72-.26.73-.42,1.51-.62,2.26a17.16,17.16,0,0,1,2.13-.8c2.41-.57,4.84-1.07,7.26-1.6-.25,1-.51,2-.76,3l0,0-.82.58c-8.14,2.77-16.22,5.7-24.43,8.24a78.72,78.72,0,0,1-16.35,3.16c1.11-.52,2.2-1.07,3.33-1.56a111,111,0,0,0,29.17-18.15C296.87,395.8,298.2,395,299.47,394Z" transform="translate(-1.21 -1.51)"/><path class="cls-7" d="M99,374.66,75.43,386.73,74,385.29c1.41-2.6,2.54-5.4,4.29-7.74s4.26-4.16,6.17-6.43c.72-.85.72-2.32,1-3.5a12.59,12.59,0,0,0-2.84.92c-2.15,1.31-4.06,3.12-6.34,4.1-3.5,1.52-7.23,2.51-10.86,3.72l-.68-.95q4.23-5.78,8.46-11.56c1.71-2.32,3.4-4.66,5.24-6.88.42-.5,1.42-.51,2.16-.75.14.87.7,2,.33,2.56A41.91,41.91,0,0,1,77.2,363c-1.89,2.09-3.81,4.17-5.61,6.33-.41.49-.39,1.32-.57,2,.68.16,1.5.65,2,.43,2.12-.88,4.16-1.94,6.2-3,2.2-1.14,4.31-2.49,6.57-3.48a3.23,3.23,0,0,1,2.71.44c.34.24.19,1.74-.21,2.38-1.86,3-3.91,5.91-5.82,8.89a15.92,15.92,0,0,0-1.06,2.55c.92.06,2,.46,2.73.11,3.6-1.76,7.07-3.77,10.64-5.58a21.9,21.9,0,0,1,3.55-1.12Z" transform="translate(-1.21 -1.51)"/><path class="cls-1" d="M67.94,144.32c-.86.6-1.71,1.68-2.58,1.7-2.85,0-4.45,1.37-5.73,3.84C53,162.71,49.77,176.7,46.44,190.61,45,196.53,44.91,202.77,44,208.82c-.37,2.41-1.9,4.68-2,7.07-.47,9.24-.59,18.5-.84,27.75h-.77c0-11.35-.53-22.74.09-34.06.37-6.74,2.48-13.39,3.87-20.07.58-2.79,1.45-5.51,2-8.3,2.35-12.11,7.46-23.15,12.78-34.15C61.18,142.65,64.75,144.45,67.94,144.32Z" transform="translate(-1.21 -1.51)"/><path class="cls-7" d="M62.26,330.39c-3.27,2.6-6.57,5.16-9.78,7.83-1.55,1.28-4.28,1.67-3.83,4.63A50.55,50.55,0,0,0,54,342c3.29-.92,6.5-2.08,9.77-3.05a11.21,11.21,0,0,1,3.56-.59,3.74,3.74,0,0,1,2.46,1.09c.25.3-.34,1.71-.9,2.22-2.66,2.4-5.53,4.56-8.12,7-.86.82-1.08,2.3-1.59,3.49,1.19.07,2.53.53,3.54.15,4.23-1.59,8.23-4,13.33-2.43-.48.5-.83,1.22-1.35,1.38-6.82,2.09-13.65,4.17-20.52,6.06-1.23.33-2.71-.23-4.07-.38a14.29,14.29,0,0,1,2-3.23c3.44-3.15,7.07-6.08,10.51-9.22.7-.64.91-1.83,1.34-2.77-.93-.14-2-.62-2.79-.36-4.36,1.4-8.63,3.09-13,4.44a6.19,6.19,0,0,1-3.71-.45,3.65,3.65,0,0,1,.3-2.82c4.83-4.34,9.8-8.52,14.77-12.7a4.92,4.92,0,0,1,1.66-.55Z" transform="translate(-1.21 -1.51)"/><path class="cls-7" d="M323,429.1c-9.66,0-17.27-13-12.27-21.32.94-1.57,3.42-2.71,5.38-3.12,8-1.66,17.94,8.69,16.34,16.74C331.36,426.94,328.73,429.09,323,429.1Zm-.38-3.68c3.66,0,4.38-.49,5.77-3.46,1.89-4.06-1.79-11.24-6.9-14-2.67-1.45-4.84-1.24-7.07.72s-2.74,4-1.51,6.6c1,2.11,1.91,4.27,3,6.32C317.47,424.29,319.8,425.71,322.64,425.42Z" transform="translate(-1.21 -1.51)"/><path class="cls-7" d="M96.84,403.41a10.62,10.62,0,0,1-9.36-5.35c-2-3.42-.25-6.75,1-10.1,3.12-8.07,10.71-7,16.94-8.29,2.88-.61,6.77,6.38,5.5,10.33-1.57,4.87-4.1,9.42-8.92,11.94C100.47,402.76,98.58,402.94,96.84,403.41Zm12-15.31c0-3.2-4-6.27-7.67-5.68-5.45.89-8.4,5-10.68,9.31-1.73,3.28,1.85,8.15,5.55,8.36C99.4,400.27,108.79,391.48,108.84,388.1Z" transform="translate(-1.21 -1.51)"/><path class="cls-5" d="M103.59,205c-.22,11.53-.46,23.05-.64,34.57-.08,5.28.77,6.2,5.91,6.16,18-.15,36-.43,53.94-.53,4.1,0,4.67-2.87,4.77-5.71.14-3.69-.49-7.4-.47-11.1,0-7.42.51-14.85.4-22.26-.07-4.9-.85-9.78-1.31-14.66,2.7,2.67,3.33,5.7,3.15,9.61-.61,13.74-.72,27.5-.77,41.25,0,2.91-.84,3.78-3.64,3.77-20,0-39.91.1-59.86,0-1,0-2.79-1.48-2.79-2.25.11-12.51.44-25,.75-37.52A4.31,4.31,0,0,1,103.59,205Z" transform="translate(-1.21 -1.51)"/><path class="cls-7" d="M369.51,368.93c0-7.72,5.13-11.73,12.26-9.66,5.91,1.71,11,5,12.37,12,1.18,6.19-3.8,12.05-10,10.83s-11.74-3.64-13.92-10.38C369.83,370.46,369.57,369.16,369.51,368.93Zm22,5.38c.2-5-5.84-11.39-10.29-12.16-4-.7-6.88.47-8.15,3.4-1.58,3.62.16,6.2,2.88,8.31,1.95,1.5,3.89,3.2,6.12,4.1a7.94,7.94,0,0,0,5.69.14C389.56,377.28,390.74,375.19,391.55,374.31Z" transform="translate(-1.21 -1.51)"/><path class="cls-7" d="M118,420.3c-.52-1.38-1.41-2.74-1.46-4.13-.09-2.42.61-4.88.46-7.29-.09-1.42-.92-3.7-1.86-4-1.47-.4-3.38.43-5,1.06a14.06,14.06,0,0,0-2.92,2.1l-.84-.5a24.86,24.86,0,0,1,1.64-3.31c2.22-3.2,4.58-6.31,6.83-9.5,3-4.17,10.23-3.75,13.18.59,4.06,6,1.31,11.54-4.66,12.72-2.56.51-3.33,1.93-3.38,4.41a64,64,0,0,1-1,7.49Zm1.76-25.38c-1,1.2-4.12,4.15-3.8,4.59,1.83,2.5,4.48,4.4,6.85,6.5,1.32-1.92,3.18-3.68,3.79-5.8S123.12,394.77,119.71,394.92Z" transform="translate(-1.21 -1.51)"/><path class="cls-2" d="M178,339c-1.44-5.05-3.12-10-4.27-15.14a120.13,120.13,0,0,1-1.89-13.12c-.35-3.21-2-4.15-5-3.77-4.5.58-9,1-13.52,1.57-.35,0-.84.11-1,.35-4.3,5.57-8.82.49-13.22.18-.26,0-.9-2.51-.51-2.83,3.88-3.25,7.85-6.49,13.27-6.63.61,0,1.24.61,1.86.94l-12.52,6.23c1.9.33,3.15.86,4.31.7,7.47-1,14.91-2.18,22.37-3.25,2.78-.4,4.76-.24,5.25,3.59C174.44,318.23,176.32,328.59,178,339Z" transform="translate(-1.21 -1.51)"/><path class="cls-7" d="M202.46,447.49c-2.18-.55-4.86-.49-6.43-1.78-3-2.46-1.58-6.2-1.12-9.36.53-3.69,1.83-7.26,2.51-10.93s1.8-4.31,5.24-2.83c2.08.89,4,2.21,6.2,2.77,3.68.95,4.95,3.79,4.85,6.79a37.16,37.16,0,0,1-2.16,11C210.1,447.23,206.34,447.44,202.46,447.49Zm-4.22-7.67c-.33,5,.22,5.58,3.82,5.69,3.83.11,6.5-2.19,7.69-6.63,1.62-6,.68-10.17-2.71-12-3.89-2.16-7-.74-7.66,3.62C198.84,434,198.51,437.56,198.24,439.82Z" transform="translate(-1.21 -1.51)"/><path class="cls-7" d="M49,307.43c-5.9,4.44-13,5.8-19.87,7.88-.74.22-1.74-.42-2.62-.65.22-.78.23-1.76.72-2.31,2.8-3.09,5.79-6,8.55-9.14a20.49,20.49,0,0,0,2.2-3.89c-1.28-.18-2.64-.72-3.83-.46-2.6.56-5.09,1.59-7.66,2.32a6.71,6.71,0,0,1-3.92,0c7.23-5.27,16-5.59,24.07-7.82l.94,1.24c-3.09,3.12-6.15,6.27-9.28,9.35-1.48,1.46-3.21,2.69-4.6,4.22-.55.61-.48,1.77-.7,2.68a10.36,10.36,0,0,0,2.56-.09c4.32-1.22,8.61-2.55,12.92-3.83A2.84,2.84,0,0,0,49,307.43Z" transform="translate(-1.21 -1.51)"/><path class="cls-7" d="M334.4,405.83q4,6.39,8.08,12.76l-1.61,1.06-14.59-20.3c7,0,12.07,2.17,16.92,5.06a12.83,12.83,0,0,0,1.88,1.18,5,5,0,0,0,1.69,0,4.33,4.33,0,0,0-.23-1.69c-1.25-2-2.71-3.82-3.85-5.85-.46-.83-.28-2-.39-3a12.13,12.13,0,0,1,2,1.67c2.95,3.74,5.88,7.49,8.69,11.33a7.78,7.78,0,0,1,.71,2.74c-1.06.09-2.26.55-3.15.2-2.95-1.14-5.75-2.67-8.68-3.87-2.19-.89-4.49-1.51-6.75-2.26Z" transform="translate(-1.21 -1.51)"/><path class="cls-7" d="M419,294c5,1.65,9.7,2.72,13.86,4.83,1.47.75,2.08,4,2.31,6.16.19,1.83-.82,3.76-1.18,5.67-.64,3.46-2.32,5.1-6,3.76-5.12-1.89-10.32-3.59-15.33-5.72-1.44-.61-3.52-2.73-3.29-3.68.72-3-.49-7.15,4-8.55A51,51,0,0,0,419,294Zm1.05,2.89-.2.53c-.61,0-1.22.11-1.84.15-3.61.27-5,2.92-4.93,5.83,0,1.31,2,3,3.5,3.78a77.09,77.09,0,0,0,10.95,4.46c1.05.35,3.32-.22,3.67-1,2-4.37,2.6-7.38-1.95-10.28C426.54,298.63,423.13,298,420,296.88Z" transform="translate(-1.21 -1.51)"/><path class="cls-7" d="M164,417.16c-.34,3.51-.32,6.38-.95,9.1a11.54,11.54,0,0,1-14.75,8.11c-7.28-2.3-7.29-2.3-4.28-9.46,2-4.75,4-9.47,6-14.21.53-1.23,1-1.9,2.68-1.05a53.28,53.28,0,0,0,7.76,3.12C163.05,413.63,164.51,415,164,417.16Zm-1.55,4c-.72-3.95-4.65-8.09-8.28-8.17a2.34,2.34,0,0,0-1.77,1c-2.11,4.17-4.25,8.33-6,12.64a4.59,4.59,0,0,0,.7,4c2.54,2.57,8.49,2.33,10.65-.6C159.7,427.39,160.91,424.14,162.46,421.15Z" transform="translate(-1.21 -1.51)"/><path class="cls-1" d="M304.75,404.59c.25-1,.51-2,.76-3,2.89-1.56,5.79-3.1,8.66-4.69.75-.41,1.34-1.21,2.12-1.44,14.09-4.06,23.43-15.71,35.89-22.37.53-.28,1.33-.75,1.36-1.17.32-5.19,4.61-4.47,7.82-5.36-4.85,6.45-11.44,10.87-18,15.28-9.4,6.33-18.84,12.62-28.47,18.6C311.84,402.35,308.15,403.24,304.75,404.59Z" transform="translate(-1.21 -1.51)"/><path class="cls-5" d="M273.42,354c-2.23-.51-4.47-1.47-6.71-1.48-24.95-.11-49.9-.07-74.85-.07-4.47,0-4.93.37-3.59,4.67,5.52,17.76,11.32,35.41,23.41,50.12a13,13,0,0,1,1.43,3.26c-8-6.41-12.27-15.41-16.12-24.41-4.16-9.74-7.17-20-10.63-30-1.42-4.12-1.12-4.46,3.53-4.46h81.75C273.3,351.65,274.73,351.82,273.42,354Z" transform="translate(-1.21 -1.51)"/><path class="cls-3" d="M266,388.05c-2.08,4.67-3.83,9.53-6.33,14-2.37,4.21-5.52,8-9.09,13,4-1.67,7.21-3,10.45-4.37,2-.83,4-1.67,6.08-2.42,6.06-2.2,12-4.51,15.47-10.57,1.43-2.5,3.72-3.59,6.6-2-7,7.94-16.11,12.62-25.81,16.32-4.49,1.71-9.06,3.22-13.62,4.73a11.65,11.65,0,0,1-2.79.23,16,16,0,0,1,1.35-3.44c2.91-4.29,6-8.47,8.92-12.72S263.05,392.29,266,388.05Z" transform="translate(-1.21 -1.51)"/><path class="cls-7" d="M58.17,324.06a46.34,46.34,0,0,1-3.73-5.58c-1.52-3.12-3.66-3.14-6.35-1.9-2.91,1.35-1.91,3.54-1.14,5.61a37.11,37.11,0,0,1,1.6,3.61,6.52,6.52,0,0,1-.43,2.57c-.69-.4-1.59-.65-2-1.24a17,17,0,0,1-1.91-3.54c-1.52-3.61-2.83-4.1-6.46-2.31-3,1.5-3.4,3.29-1.59,6.51a30.39,30.39,0,0,1,2.3,5.34c.17.48-.5,1.23-.79,1.86-.53-.29-1.23-.45-1.56-.89-.72-1-1.22-2.1-1.88-3.12-5-7.71-3.15-11.6,6.06-13.68,4-.9,7.74-2.82,11.61-4.24,1.9-.69,3.45-.68,4.26,1.75,1,2.9,2.26,5.71,3.41,8.55Z" transform="translate(-1.21 -1.51)"/><path class="cls-4" d="M92.46,114.91c-1.67-.73-3.37-1.38-5-2.21-2.41-1.25-4.23-1.32-5.94,1.34-3.66,5.71-7.8,11.11-11.35,16.89-1.7,2.75-2.49,6.07-3.69,9.13l-3.13-.7c4.14-6.63,8.18-13.33,12.47-19.86a115.52,115.52,0,0,1,19.48-23C93.89,99,92.79,101.77,91,103.9c-3.13,3.68-3.11,3.91.77,6.58,3.3,2.28,6.22,5.11,9.31,7.7Z" transform="translate(-1.21 -1.51)"/><path class="cls-1" d="M158.77,54.64c-2.67,1.91-5.23,4-8.05,5.69-10.26,6-20.81,11.63-30.85,18C114.1,82,109.2,87,103.72,91.17,102,92.49,99.66,93,97.61,93.92a180.89,180.89,0,0,1,32.7-25.4c7.45-4.45,15.5-7.92,23.3-11.77C155.27,55.92,157.05,55.33,158.77,54.64Z" transform="translate(-1.21 -1.51)"/><path class="cls-7" d="M233.25,432.57a49.15,49.15,0,0,1,.08-5.95c.09-.7,1.15-1.28,1.76-1.91.37.64,1.09,1.3,1.06,1.91q-.65,10.1-1.54,20.18a2.63,2.63,0,0,1-1.34,1.58,6.31,6.31,0,0,1-2.76.79c-3,0-7.51,1-8.55-.47-2.18-3.06-3-7.38-3.43-11.29-.34-3.3.66-6.76,1.24-10.12.12-.65,1-1.17,1.57-1.76a8,8,0,0,1,.6,2.21c-.16,4.91-.84,9.86-.4,14.71.17,1.86,2.57,4.45,4.44,5a4.34,4.34,0,0,0,5.58-3.71c.62-3.69,1.54-7.33,2.33-11Z" transform="translate(-1.21 -1.51)"/><path class="cls-7" d="M284.69,443.18c-3.39-1-6.06-.78-6.44-4.17-.07-.64-1.87-1.4-2.94-1.52-1.27-.14-2.61.43-3.93.54-2.15.19-3.18,1-3.26,3.44a11.22,11.22,0,0,1-2.05,5.2,38.11,38.11,0,0,1,.6-20.85c1.05-3.42,3.05-3.62,5.42-.73,1.16,1.41,2,3.08,3,4.57C278.09,433.9,281.09,438.1,284.69,443.18ZM269.52,426l-1.11.38A68.62,68.62,0,0,0,268,434a2.91,2.91,0,0,0,2,2.08,18.74,18.74,0,0,0,4.56-1,12.61,12.61,0,0,0-.89-2.64C272.33,430.27,270.9,428.17,269.52,426Z" transform="translate(-1.21 -1.51)"/><path class="cls-3" d="M100,257.83c-1.13-1.76-2.15-3.61-3.44-5.25A3.85,3.85,0,0,0,94,251.16c-17.34-.06-34.69,0-52,0,0-.76,0-1.51,0-2.27,17.22,0,34.44,0,51.66,0,6.35,0,6.35.06,6.45,6.38C100.05,256.1,100,257,100,257.83Z" transform="translate(-1.21 -1.51)"/><path class="cls-7" d="M369.28,397.83c-8.27,0-16.14-7.39-15.3-15,.66-6,3.84-9.1,9.86-8,.88.16,1.6,1.22,2.39,1.87a8.33,8.33,0,0,1-2.42.37c-5.43-.84-8.44,3.07-6.86,9,1.05,3.95,7.44,8.7,11.54,8.83,3.35.1,5.36-.9,5.66-4.62.09-1.22,1.38-2.34,2.13-3.51.46,1.57,1.44,3.18,1.3,4.69C377.22,395.55,374,397.84,369.28,397.83Z" transform="translate(-1.21 -1.51)"/><path class="cls-2" d="M137.17,94c2.5-4.62,4.2-10,7.69-13.7,6.48-6.84,14-12.68,21.08-19,1.36-1.21,2.53-2.63,3.8-4,1.91-2,3.67-4.41,7-2.62-4.11,3.35-8.55,6.38-12.25,10.14-7.86,8-15.34,16.39-23,24.61C140.09,91,138.62,92.51,137.17,94Z" transform="translate(-1.21 -1.51)"/><path class="cls-1" d="M122.29,343.45c-2.16-5.07-4.26-10.16-6.56-15.17-.43-.95-1.72-2.26-2.46-2.17-2.72.33-2-1.06-1.88-2.65a14.68,14.68,0,0,0-.2-5.81c-3.34-10.12-7.46-20-6.71-31,4,17,10.07,33.21,16.28,49.43,1.23,3.21,2.51,6.41,3.77,9.62H123Z" transform="translate(-1.21 -1.51)"/><path class="cls-7" d="M190.41,432.06a8.67,8.67,0,0,1-9.22.47c-4.24-2.06-4.33-2-4.55,3-.07,1.81-1.55,4,1,5.23,1.71.8,3.62,1.14,5.38,1.82,1.4.53,2.73,1.25,4.09,1.89l-.42,1.27c-4.2-1.06-8.45-2-12.58-3.31-.63-.2-1.23-2.18-1-3.16,1.28-5.68,3-11.27,4.12-17,.49-2.56,1.62-3.11,3.72-2.82,3.26.44,6.51,1,9.74,1.54.49.08.88.7,1.31,1.07-.47.35-1,1-1.39,1a38.57,38.57,0,0,1-5-1c-2.85-.75-5.87-.87-6.54,2.56-.74,3.76-.87,5.28,4.06,6.05C185.35,431,187.54,431.49,190.41,432.06Z" transform="translate(-1.21 -1.51)"/><path class="cls-2" d="M366.55,360.61c.71-1.67,1.44-3.32,2.09-5a12.48,12.48,0,0,0,.4-2l-2,.23a64,64,0,0,1-7.77.82c-5.05-.07-10.21.13-15.12-.86-7.16-1.45-11.93.6-15.17,7.14-.62,1.27-2.77,1.79-4.22,2.65a71.23,71.23,0,0,1,3.43-7.84c1.08-1.87,2.32-3.49,5.32-3.42,12.23.29,24.46.1,36.69.19,1.17,0,2.32.75,3.48,1.16-.74.84-1.42,1.75-2.22,2.52C369.85,357.68,368.19,359.13,366.55,360.61Z" transform="translate(-1.21 -1.51)"/><path class="cls-2" d="M323.31,365a7.56,7.56,0,0,0,.07,2.57c1.35,3.27,1.39,5.59-3.17,5.14-1.48,4.3-6.18,6.27-7.74,10.13-.78,1.92-.24,4.6-2,6.5a11,11,0,0,0-.8,1.14c-3.3-2.11-5.61,1.64-8.56,1.42q9.3-11.42,18.62-22.84C320.88,367.65,322.11,366.33,323.31,365Z" transform="translate(-1.21 -1.51)"/><path class="cls-4" d="M193.73,87.27l-2,0a101.91,101.91,0,0,1,19.11-35.61c1.58-1.91,4-3.11,6.07-4.64-1.9,3-3.26,6.57-5.8,8.83-7,6.2-9.86,14.6-13.56,22.61C196.22,81.38,195,84.34,193.73,87.27Z" transform="translate(-1.21 -1.51)"/><path class="cls-5" d="M150.61,169.59q.31,0,.3.3l1.93,1.56-.06-.06,1.52.82-.05-.05,1.56,2.27-.05-.06.8.8-.05,0,.78.79,0,0,.76.81,0-.05.8,1.53,0,0,1.51,2.28,0,0q1.53,3.36,3,6.72c-2.71-2.58-5.62-5-8.09-7.8-5.21-5.91-10.11-12.12-15.33-18-2.19-2.48-5-4.4-7.31-6.8-1.21-1.28-1.9-3.07-2.82-4.62,4.37,4,8.73,8.1,13.11,12.12,1.32,1.22,2.71,2.36,4.06,3.54l0,0Z" transform="translate(-1.21 -1.51)"/><path class="cls-3" d="M314.43,370.36c1.47-2.89,2.77-5.88,4.48-8.63,1.11-1.79,1.69-3.28.16-5-1.24-1.38-2.42-3.1-4.59-1.23a1.41,1.41,0,0,1-1.32.18c-3.38-3.28-7.55-1.48-11.36-1.77-3.45-.28-6.95,0-10.42-.12a10.94,10.94,0,0,1-3.13-1.19l18.06-.26c5.8,0,11.59,0,17.39,0a14.37,14.37,0,0,1,2.4.42,10.44,10.44,0,0,1-1,2.59C321.6,360.43,318,365.39,314.43,370.36Z" transform="translate(-1.21 -1.51)"/><path class="cls-7" d="M137.31,146.66,135,148.44l1.21,3.17a10.52,10.52,0,0,1-2.53-1.27c-5.37-4.86-10.73-9.73-16-14.72a18,18,0,0,1-2.39-3.76l.71-.6c2.83,1.82,5.69,3.61,8.49,5.48,3.64,2.42,7.25,4.86,10.8,7.42A11.55,11.55,0,0,1,137.31,146.66Z" transform="translate(-1.21 -1.51)"/><path class="cls-7" d="M393.25,335.63c4,1.95,8,3.88,11.92,5.88,1.32.67,2.53,1.55,3.81,2.31,4.13,2.43,4.16,2.42,6.69-1.82.06-.11.05-.29.13-.34,1.52-.93,3.06-1.85,4.59-2.77-.35,1.53-.31,3.32-1.12,4.54a28.11,28.11,0,0,1-5,5.38,3.26,3.26,0,0,1-3,.17c-6-3.54-11.82-7.24-17.68-10.94-.45-.28-.68-.91-1-1.38Z" transform="translate(-1.21 -1.51)"/><path class="cls-7" d="M424.76,328.1c-1.88-.53-3.81-.93-5.62-1.63a40.12,40.12,0,0,1-5.6-2.71c-4.09-2.37-8.09-4.55-12,.3-.24.29-.85.27-2.62.79l7.7-14.12c.84,1.6,1.64,2.49,1.45,2.88-2.05,4.07,1.55,4.7,3.69,5.92,3.47,2,7.16,3.51,10.69,5.37a15.46,15.46,0,0,1,2.68,2.34Z" transform="translate(-1.21 -1.51)"/><path class="cls-7" d="M294,439.47c-2.15-4.91-4.83-9.67-6.24-14.78-.85-3.1-1.86-4.12-4.81-3.79-1.37.15-2.77,0-4.58,0,1.36-2.79,3-3.61,5.65-4s4.92-2.09,7.44-3a4,4,0,0,1,2.73.13,2,2,0,0,1,.53,1.91,3.48,3.48,0,0,1-2.06,1.21c-4.66,1-5,1.39-3.35,5.74s3.38,8.29,5,12.47a25,25,0,0,1,.85,3.69Z" transform="translate(-1.21 -1.51)"/><path class="cls-5" d="M41.93,248.89c0,.76,0,1.51,0,2.27L41.2,254l-.87-10.38h.77c2,.53,4,1.48,5.94,1.5q23,.18,45.9,0a40.87,40.87,0,0,0,6.15-.95c1.18,2.64-1,1.93-2.09,1.94-6.33.07-12.65,0-19,0-10.17,0-20.34,0-30.51.11C45.37,246.32,42.76,245.83,41.93,248.89Z" transform="translate(-1.21 -1.51)"/><path class="cls-3" d="M346.27,155.86c-.67-1.54-1.73-3-1.94-4.63-.59-4.6-3.79-5.79-7.53-5.82q-23.07-.19-46.13,0c-1.61,0-3.21,1.45-4.81,2.23-1.29-2.7-.45-3.78,2.55-3.79,15.83,0,31.66-.14,47.49-.2a19.36,19.36,0,0,1,3.65.33C346.38,145.34,345.23,151.23,346.27,155.86Z" transform="translate(-1.21 -1.51)"/><path class="cls-7" d="M136.48,404.58c0,3.05-.73,5.68-3.38,7.67-1.09.82-1.62,2.38-2.43,3.59-3.46,5.15-3.39,5.18,1.63,8.16,1.44.85,2.5,2.34,3.73,3.54-1.76-.28-3.53-.52-5.28-.85a21.15,21.15,0,0,1-2.44-.7c-3.44-1.1-4.61-3.37-2.76-6.36,3.3-5.3,6.92-10.39,10.41-15.57A2.33,2.33,0,0,0,136.48,404.58Z" transform="translate(-1.21 -1.51)"/><path class="cls-3" d="M282.46,352.58c-.55,1-1,2-1.64,2.86-2.38,3.42-4.86,6.59-4.77,11.27.05,2.5-1.87,5-2.71,7.56-1.07,3.23-2.59,6.51-2.71,9.81-.14,3.67-1.1,4.09-4,2.52,3.49-10.45,7.06-20.87,10.42-31.37.66-2.06,1.44-3.22,3.7-2.85Z" transform="translate(-1.21 -1.51)"/><path class="cls-1" d="M278,47.9c.63,1.17,1,2.67,1.94,3.45,3.25,2.63,6.74,5,10,7.53.66.52.85,1.64,1.26,2.48-6.37-4-12.69-8-19.15-11.85-3.74-2.21-7.71-4-11.46-5.95C266.67,43.35,272.44,45.1,278,47.9Z" transform="translate(-1.21 -1.51)"/><path class="cls-1" d="M226.57,284.65c-2.46,2.36-4.94,4.69-7.37,7.08a12.68,12.68,0,0,0-1.54,2c-.34.49-.52,1.43-.91,1.51-2.78.61-5.6,1.05-8.4,1.53L201.19,298c0-.43,0-.86,0-1.29,6-2.91,12.11-5.8,18.14-8.76,2.13-1,4.18-2.24,6.26-3.38Z" transform="translate(-1.21 -1.51)"/><path class="cls-5" d="M285.09,140.21c15.07,0,30.13,0,45.2-.14,3.54,0,7.08-.58,10.63-.89,1.61,2.54-.55,1.92-1.7,1.94q-15.59.19-31.16.3c-6.07.05-12.13.14-18.19,0C288.27,141.41,286.69,140.64,285.09,140.21Z" transform="translate(-1.21 -1.51)"/><path class="cls-5" d="M178.77,140.75a10.94,10.94,0,0,1,2.44-.58q48.82,0,97.63,0a9.81,9.81,0,0,1-2.65.76q-48,.12-96,.14A5.63,5.63,0,0,1,178.77,140.75Z" transform="translate(-1.21 -1.51)"/><path class="cls-1" d="M184.13,50.22c-.59-.56-1.29-1.67-1.75-1.58-2.85.58-5.62,1.53-8.46,2.15s-5.71,1-8.56,1.49c5.3-3.78,11.56-4.72,17.71-6l11.81-2.43.51,1.28Z" transform="translate(-1.21 -1.51)"/><path class="cls-2" d="M203.53,56.13c.55-1.44,1.1-2.88,1.66-4.31s1-2.59,1.54-3.88a28.63,28.63,0,0,0-4.37.43c-1.78.43-3.44,1.33-5.21,1.77a13.58,13.58,0,0,1-3.37,0c5.75-2.08,11.49-4.19,17.25-6.24a6.85,6.85,0,0,1,2,0,6.64,6.64,0,0,1-.74,2.29C209.45,49.51,206.47,52.8,203.53,56.13Z" transform="translate(-1.21 -1.51)"/><path class="cls-7" d="M170.77,172.08c-1.25-.31-2.88-.25-3.69-1-2.14-2.08-4.27-3.67-7.47-3.45-.57,0-1.25-1.17-1.84-1.84-1.83-2-3.65-4.1-5.47-6.15l-4.71-5.32a27.6,27.6,0,0,1,4.78,2.55C158.57,161.84,164.65,167,170.77,172.08Z" transform="translate(-1.21 -1.51)"/><path class="cls-7" d="M310.72,431.47a8.87,8.87,0,0,1-1.46,1.91c-.16.12-1.16-.47-1.36-.92q-4.06-9.07-7.95-18.24c-.21-.47.23-1.22.37-1.84.4.16,1,.22,1.17.51C304.6,419.08,307.67,425.3,310.72,431.47Z" transform="translate(-1.21 -1.51)"/><path class="cls-4" d="M249.67,254.07c-1.14-.43-2.32-.79-3.42-1.32-4.24-2.05-5.17-1.49-5.56,3.38-.23,2.95-.41,5.9-.78,8.83a8.69,8.69,0,0,1-1.27,2.5c.12-4.7.15-9.4.4-14.09.08-1.34.58-3.66,1.24-3.8a10.36,10.36,0,0,1,6,.37C247.76,250.6,248.58,252.64,249.67,254.07Z" transform="translate(-1.21 -1.51)"/><path class="cls-5" d="M216.79,414.22c8.24,2.44,16.47,2.12,24.71,0-2.32,1.47-4.49,3.77-7,4.26-6.09,1.19-12-.44-17.49-3.21C216.81,415.17,216.86,414.58,216.79,414.22Z" transform="translate(-1.21 -1.51)"/><path class="cls-7" d="M240.83,434.39c-.4-5.9.69-7.68,6.33-9.94,5.28-2.1,8.27,1.31,11,5.37a21.59,21.59,0,0,1-2.27-.76c-.77-.36-1.46-.9-2.22-1.29-6.6-3.36-9.65-1.62-10.09,5.74a8.09,8.09,0,0,1-.22,1.09Z" transform="translate(-1.21 -1.51)"/><path class="cls-2" d="M192.31,77c.7-3,1.31-5.92,2.13-8.83.63-2.21,1.9-4.31,2.18-6.55s-.2-4.32,3.36-3.53c1,.22,2.38-1.26,3.59-1.95Q197.93,66.52,192.31,77Z" transform="translate(-1.21 -1.51)"/><path class="cls-4" d="M108,140.09a10.37,10.37,0,0,1,2.22-1.46c3.41-1.17,3.71-2.09,1-4.59-2.17-2-4.7-3.58-6.83-5.61a35.47,35.47,0,0,1-3.65-4.8c4.33,3.37,8.75,6.64,13,10.15,2.46,2.06,1.36,4.34-.32,6.39Z" transform="translate(-1.21 -1.51)"/><path class="cls-5" d="M292.79,245.28l64.1-.11a10.29,10.29,0,0,1-2.63.71q-29.56.06-59.14,0A9.52,9.52,0,0,1,292.79,245.28Z" transform="translate(-1.21 -1.51)"/><path class="cls-7" d="M243.8,440.94c.72,1.36,1.17,3,2.22,4,2.42,2.4,5.56,4.27,8.83.82,1-1.06,1.83-2.31,3.28-4.18,0,4.46-2.28,7.15-5.39,7.58-6.07.83-9.62-1.56-11.16-7.51Z" transform="translate(-1.21 -1.51)"/><path class="cls-5" d="M108,140.09l5.37.08a15.34,15.34,0,0,1-3.67.93q-22,0-44.09-.17c-.87,0-3.06,1.12-2.28-1.57l3.13.7Z" transform="translate(-1.21 -1.51)"/><path class="cls-5" d="M347.15,140.27c13.32,0,26.64,0,40-.17a61.8,61.8,0,0,0,7.62-1c.09.55.19,1.11.29,1.67-1,0-2,.11-3,.11q-20.74,0-41.49,0A20.47,20.47,0,0,1,347.15,140.27Z" transform="translate(-1.21 -1.51)"/><path class="cls-4" d="M237.71,270.38c-.11,6-5.91,12.9-10.8,12.92Z" transform="translate(-1.21 -1.51)"/><path class="cls-3" d="M286.23,149.05c4,2.45,8.27.5,12.42.47,3.25,0,6.49.06,9.74.1-6.29.88-12.65,1.41-18.83,2.77C285.8,153.21,285.87,151.63,286.23,149.05Z" transform="translate(-1.21 -1.51)"/><path class="cls-5" d="M128.81,352.52l-38-.08c-1.68,0-3.7-.45-3.49,2.36l-3.45-3.21c14,0,27.16,0,40.3,0A25.62,25.62,0,0,1,128.81,352.52Z" transform="translate(-1.21 -1.51)"/><path class="cls-5" d="M178.27,352.42c-11,0-22.08,0-33.12.11-4.31,0-8.62.44-12.93.67.83-.51,1.65-1.48,2.48-1.48,13.88-.1,27.77-.08,41.66,0A5.78,5.78,0,0,1,178.27,352.42Z" transform="translate(-1.21 -1.51)"/><path class="cls-7" d="M184.16,183.22c-5.5-.53-11-5.08-11.75-9.79l6.52,3.95-.06,0,.79.8,0-.06Z" transform="translate(-1.21 -1.51)"/><path class="cls-4" d="M201.21,296.71c0,.43,0,.86,0,1.29-1.93,1-3.77,2.33-5.82,2.82-2.57.62-5.31.53-8,.74Z" transform="translate(-1.21 -1.51)"/><path class="cls-3" d="M348.54,164.72c-2.55,1.07-5.13,2.11-6-1.93a10.91,10.91,0,0,1,.08-2.67,7,7,0,0,1,2.2.45c1.5.89,2.5,1.16,2.34-1.14Q347.86,162.07,348.54,164.72Z" transform="translate(-1.21 -1.51)"/><path class="cls-1" d="M371.69,344.24l9.83-.77-4,6Z" transform="translate(-1.21 -1.51)"/><path class="cls-3" d="M286.15,258.14l-4.26-8.21C287.56,249.51,287,248,286.15,258.14Z" transform="translate(-1.21 -1.51)"/><path class="cls-5" d="M174.19,202.13a70.9,70.9,0,0,0-1.91,8c-.48,3.73-.53,7.52-.76,11.29,0-6.69-.12-13.37,0-20.06,0-1.11.74-2.22,1.14-3.33h0Z" transform="translate(-1.21 -1.51)"/><path class="cls-11" d="M243.8,440.94l-2.22.75-.75-7.3,2.56.21C243.53,436.71,243.66,438.82,243.8,440.94Z" transform="translate(-1.21 -1.51)"/><path class="cls-4" d="M331.43,316.62l1.49-.85,7.2,5.77-1,1.28Z" transform="translate(-1.21 -1.51)"/><path class="cls-5" d="M150.49,140.87c5.95-.25,11.9-.43,17.84-.77,2.28-.13,4.54-.62,6.82-.94-.79.63-1.58,1.8-2.38,1.81C165.35,141.05,157.92,140.93,150.49,140.87Z" transform="translate(-1.21 -1.51)"/><path class="cls-5" d="M282.46,352.58l-1.68-.2a11.15,11.15,0,0,1,2.63-.7q10.13-.09,20.26,0a11.16,11.16,0,0,1,2.64.68l-18.06.26Z" transform="translate(-1.21 -1.51)"/><path class="cls-4" d="M239,242.23c.55,1.39,1.1,2.78,1.66,4.18-1.38-1-2.78-2-4.11-3.13-.21-.17-.14-.69-.19-1.05Z" transform="translate(-1.21 -1.51)"/><path class="cls-5" d="M356.86,245.21,357,228Z" transform="translate(-1.21 -1.51)"/><path class="cls-5" d="M131.56,139.42l13.85,1.45c-3.58.06-7.17.23-10.75.09C133.61,140.91,132.59,140,131.56,139.42Z" transform="translate(-1.21 -1.51)"/><path class="cls-5" d="M239,242.23h-2.64l-1.69-.84,0,.05v-4.09Z" transform="translate(-1.21 -1.51)"/><path class="cls-5" d="M187.67,245.87c3.08-1.05,3.2-3.67,3.31-6.29a20.69,20.69,0,0,1,.56,2C192.33,246.22,192.32,246.22,187.67,245.87Z" transform="translate(-1.21 -1.51)"/><path class="cls-1" d="M366.44,340.51c2.19-.17,4.07.06,3.79,3Z" transform="translate(-1.21 -1.51)"/><path class="cls-4" d="M101.14,118.23l3.1,2.12Z" transform="translate(-1.21 -1.51)"/><path class="cls-5" d="M164.81,189.36,163.23,187Z" transform="translate(-1.21 -1.51)"/><path class="cls-1" d="M282.54,49.25,279.33,48Z" transform="translate(-1.21 -1.51)"/><path class="cls-1" d="M303,71.09l1.6,1.44Z" transform="translate(-1.21 -1.51)"/><path class="cls-1" d="M305.4,73.16,307,74.62Z" transform="translate(-1.21 -1.51)"/><path class="cls-3" d="M347,158.82l-.6-2.37Z" transform="translate(-1.21 -1.51)"/><path class="cls-1" d="M164.78,52.42l-1.66.6Z" transform="translate(-1.21 -1.51)"/><path class="cls-4" d="M251.83,161.64l1.56-.6Z" transform="translate(-1.21 -1.51)"/><path class="cls-7" d="M147.59,154.3l-1.46-1Z" transform="translate(-1.21 -1.51)"/><path class="cls-1" d="M370.2,343.49l1.53.78Z" transform="translate(-1.21 -1.51)"/><path class="cls-1" d="M362.83,365.11l.82-1.52Z" transform="translate(-1.21 -1.51)"/><path class="cls-1" d="M298.7,67.21l1.22,1.07Z" transform="translate(-1.21 -1.51)"/><path class="cls-1" d="M294.22,63.49l1.23,1.06Z" transform="translate(-1.21 -1.51)"/><path class="cls-1" d="M292,62l1.37,1Z" transform="translate(-1.21 -1.51)"/><path class="cls-5" d="M166.22,191.56c-.29-.47-.58-.94-.88-1.41C165.64,190.62,165.93,191.09,166.22,191.56Z" transform="translate(-1.21 -1.51)"/><path class="cls-4" d="M226.57,284.65l-1-.08,1.08-1Z" transform="translate(-1.21 -1.51)"/><path class="cls-7" d="M48.48,306.91l1.14-.5-.63,1A2.74,2.74,0,0,1,48.48,306.91Z" transform="translate(-1.21 -1.51)"/><path class="cls-7" d="M136,404.06l1-.61-.5,1.13A2.33,2.33,0,0,1,136,404.06Z" transform="translate(-1.21 -1.51)"/><path class="cls-2" d="M365.8,361.37l.75-.76Z" transform="translate(-1.21 -1.51)"/><path class="cls-2" d="M365.05,362.14l.77-.79Z" transform="translate(-1.21 -1.51)"/><path class="cls-4" d="M250.37,254.84l-.74-.81Z" transform="translate(-1.21 -1.51)"/><path class="cls-1" d="M362.08,365.86l.78-.79Z" transform="translate(-1.21 -1.51)"/><path class="cls-1" d="M361.33,366.6l.79-.78Z" transform="translate(-1.21 -1.51)"/><path class="cls-1" d="M297.85,66.53l.89.7Z" transform="translate(-1.21 -1.51)"/><path class="cls-4" d="M100.81,123.69,100,123Z" transform="translate(-1.21 -1.51)"/><path class="cls-5" d="M215.29,412.72l.8.8Z" transform="translate(-1.21 -1.51)"/><path class="cls-5" d="M216,413.47l.8.8Z" transform="translate(-1.21 -1.51)"/><path class="cls-1" d="M304,405.14l.82-.58Z" transform="translate(-1.21 -1.51)"/><path class="cls-1" d="M304.57,72.47l.88.72Z" transform="translate(-1.21 -1.51)"/><path class="cls-1" d="M302.23,70.38l.84.74Z" transform="translate(-1.21 -1.51)"/><path class="cls-1" d="M301.45,69.69l.82.73Z" transform="translate(-1.21 -1.51)"/><path class="cls-1" d="M300.68,69l.79.68Z" transform="translate(-1.21 -1.51)"/><path class="cls-1" d="M299.93,68.29l.72.69Z" transform="translate(-1.21 -1.51)"/><path class="cls-5" d="M213.06,410.48l.8.81Z" transform="translate(-1.21 -1.51)"/><path class="cls-1" d="M297.06,65.84l.86.75Z" transform="translate(-1.21 -1.51)"/><path class="cls-1" d="M296.26,65.19l.86.71Z" transform="translate(-1.21 -1.51)"/><path class="cls-1" d="M295.47,64.56l.82.66Z" transform="translate(-1.21 -1.51)"/><path class="cls-7" d="M172.38,173.44l-.83-.73Z" transform="translate(-1.21 -1.51)"/><path class="cls-1" d="M293.34,62.87l.93.65Z" transform="translate(-1.21 -1.51)"/><path class="cls-5" d="M214.55,412l.8.8Z" transform="translate(-1.21 -1.51)"/><path class="cls-1" d="M291.17,61.31l.89.67Z" transform="translate(-1.21 -1.51)"/><path class="cls-1" d="M162.53,53.16l-.9.58Z" transform="translate(-1.21 -1.51)"/><path class="cls-5" d="M213.81,411.23l.79.8Z" transform="translate(-1.21 -1.51)"/><path class="cls-2" d="M269.63,345.2H189.79C191.61,343.9,252.61,343.08,269.63,345.2Z" transform="translate(-1.21 -1.51)"/><path class="cls-2" d="M122.29,343.45l.75,2.22H84.8l-.07-1.21c1.23-.09,2.45-.24,3.68-.24,10,0,20,0,30-.05A20.75,20.75,0,0,0,122.29,343.45Z" transform="translate(-1.21 -1.51)"/><path class="cls-14" d="M100.48,284.35c.56,5,1.17,9.92,1.61,14.89.07.74-.7,1.55-1.08,2.33-.4-.67-1.11-1.32-1.16-2-.37-5-.6-10.09-.88-15.14Z" transform="translate(-1.21 -1.51)"/><path class="cls-14" d="M98.68,282c-.32-2.16-.63-4.33-.94-6.49l1.19-.15.94,6.49Z" transform="translate(-1.21 -1.51)"/><path class="cls-7" d="M184.13,183.25l1,.7Z" transform="translate(-1.21 -1.51)"/><path class="cls-7" d="M203.41,175.06c-1.24.54-2.45,1.15-3.72,1.59a17.42,17.42,0,0,1-2.7.53,27.31,27.31,0,0,1,.13-2.87,6.16,6.16,0,0,1,.65-2.12c1.82-3.26.57-5.47-2.1-7.59-1.55-1.22-2.61-3-3.89-4.6a41,41,0,0,1,5.7-.69c4.31.06,5.58-2.84,6.66-6.19a17.84,17.84,0,0,1,1.73-3.09,13.52,13.52,0,0,1,1.79,2.91c1.33,4.43,3.72,7.13,8.84,6.49,1-.13,2.15.84,3.23,1.31-.32.62-.49,1.51-1,1.82-5.82,3.47-5.07,8.28-2.91,13.46a10.88,10.88,0,0,1,.43,2.16c-2.28-.94-4.87-1.49-6.76-2.94C207.24,173.52,205.5,173,203.41,175.06Z" transform="translate(-1.21 -1.51)"/><path class="cls-9" d="M179.77,162.79c-.32-1-1-1.94-.73-2.44,1.76-3.5,3.68-6.93,5.66-10.33a1.83,1.83,0,0,1,1.63-.53,1.59,1.59,0,0,1,.62,1.44c-1.5,3.5-3.06,7-4.75,10.39C181.94,161.86,181,162.08,179.77,162.79Z" transform="translate(-1.21 -1.51)"/></g></g></svg>